<!--?xml version="1.0" encoding="utf-8"?-->
<!-- Generator: Adobe Illustrator 15.1.0, SVG Export Plug-In . SVG Version: 6.00 Build 0)  -->

<svg version="1.1" id="_x32_" xmlns="http://www.w3.org/2000/svg" xmlns:xlink="http://www.w3.org/1999/xlink" x="0px" y="0px" width="512px" height="512px" viewBox="0 0 512 512" style="width: 48px; height: 48px; opacity: 1;" xml:space="preserve">
<style type="text/css">

	.st0{fill:#4B4B4B;}

</style>
<g>
	<path class="st0" d="M418.145,344.375l-38.328-55.172c-4.766-6.859-3.922-16.172,2.031-22.047l13.719-13.594
		c6.141-6.078,6.813-15.781,1.563-22.656l-50.531-66.188c-5.5-7.203-4.453-17.453,2.391-23.406l5.453-4.75
		c7.016-6.109,7.906-16.688,2.016-23.875L269.316,6.313c-3.281-4-8.172-6.313-13.328-6.313c-5.141,0-10.031,2.313-13.297,6.313
		l-87.156,106.375c-5.906,7.188-5,17.766,2.016,23.875l5.453,4.75c6.844,5.953,7.875,16.203,2.375,23.406l-50.531,66.188
		c-5.25,6.875-4.563,16.578,1.578,22.656l13.719,13.594c5.938,5.875,6.797,15.188,2.031,22.047l-38.328,55.172
		c-3.172,4.578-3.953,10.422-2.047,15.656c1.906,5.25,6.219,9.25,11.594,10.75l107.578,29.656v94.359
		c0,9.5,7.703,17.203,17.203,17.203h55.625c9.516,0,17.219-7.703,17.219-17.203v-94.344l107.578-29.672
		c5.375-1.5,9.703-5.5,11.609-10.75C422.098,354.797,421.332,348.953,418.145,344.375z" style="fill: rgb(255, 255, 255);"></path>
</g>
</svg>
